<?xml version="1.0" encoding="utf-8"?>
<!-- Generator: Adobe Illustrator 15.1.0, SVG Export Plug-In . SVG Version: 6.00 Build 0)  -->
<!DOCTYPE svg PUBLIC "-//W3C//DTD SVG 1.1//EN" "http://www.w3.org/Graphics/SVG/1.1/DTD/svg11.dtd">
<svg version="1.1" xmlns="http://www.w3.org/2000/svg" xmlns:xlink="http://www.w3.org/1999/xlink" x="0px" y="0px" width="900px"
	 height="900px" viewBox="0 0 900 900" enable-background="new 0 0 900 900" xml:space="preserve">
<g id="Layer_2">
	<path fill="#27A8E0" d="M55.639,449.999c0-208.69,169.176-377.866,377.866-377.866c208.691,0,377.867,169.176,377.867,377.866
		c0,208.693-169.176,377.869-377.867,377.869C224.815,827.867,55.639,658.691,55.639,449.999z"/>
</g>
<g id="Corporate" display="none">
	<g display="inline">
		<polygon fill="#FFFFFF" points="431.977,405.797 457.909,260.507 437.107,231.798 447.297,211.328 416.657,211.328 
			426.883,231.798 406.045,260.507 		"/>
		<path fill="#FFFFFF" d="M580.412,658.233h40.977l-10.225-174.053l-20.508-230.296l-97.235-40.938l-10.242-20.47l-10.245,40.939
			l-40.957,235.425l-40.938-235.444l-10.245-40.938l-10.233,20.469l-97.243,40.939l-20.479,230.313l-10.227,174.053h40.948
			l37.362-225.88l13.803,51.79l-40.958,172.215l117.724,51.183l20.469-100.729l20.469,100.729l117.722-51.183l-40.955-172.215
			l13.809-51.79L580.412,658.233z M539.878,338.962l-41.602,5.758l27.515-33.932l14.087,10.887V338.962z"/>
	</g>
	<line display="inline" fill="none" x1="433.505" y1="0" x2="433.505" y2="931.791"/>
	<line display="inline" fill="none" x1="-38.072" y1="450" x2="1002.134" y2="450"/>
</g>
<g id="Safari" display="none">
	<g display="inline">
		<path fill="#FFFFFF" d="M343.896,303.177c17.822,1.867,37.047,9.479,51.315,21.618c-3.345-9.974-3.679-19.813-1.512-25.679
			c1.289-3.498,2.261-7.404,1.483-11.513c-2.69-15.352-19-27.761-36.726-27.761c-17.615,0-29.689,12.409-26.942,27.761
			c0.056,0.222,0.195,0.437,0.25,0.651c0.138,0.354-13.852,2.999-26.247,13.957c-1.027,0.909-2.749,2.915-4.734,5.329
			C312.125,303.648,326.338,301.399,343.896,303.177z"/>
		<path fill="#FFFFFF" d="M684.041,481.188c-0.525-1.194-1.082-2.359-1.65-3.524c-0.889-1.931-10.967-16.38-22.416-32.313
			c0,0-42.545-62.918-73.066-105.642c-7.176-7.321-26.107-26.496-65.721-22.388c-22.404,2.332-48.623,15.648-57.104,36.047
			c-1.125,7.605-2.262,13.755-3.264,13.755c-2.413,0-5.23-8.87-12.019-15.63c-4.011-3.983-10.104-6.453-16.238-6.453
			c-6.122,0-11.909,2.47-15.88,6.468c-6.801,6.787-10.964,15.615-13.353,15.615c-0.458,0-1.249-4.081-2.192-9.646
			c-6.357-22.757-34.797-37.671-58.713-40.155c-38.614-4.005-57.504,14.074-65.071,21.75
			c-30.396,42.639-73.285,106.294-73.285,106.294c-11.479,15.905-21.542,30.395-22.431,32.313c-0.555,1.165-1.082,2.33-1.567,3.579
			c-5.664,13.562-8.856,28.386-8.856,43.945c0,63.569,49.177,114.955,112.734,114.955c63.459,0,112.541-51.386,112.541-114.955
			v-17.627c0-9.772,7.425-23.958,16.308-27.263c5.011-1.888,11.895-2.915,18.045-2.915c6.134,0,14.782,1.027,19.778,2.915
			c8.896,3.305,16.932,17.49,16.932,27.263c0,9.756,0,17.627,0,17.627c0,63.569,49.139,114.955,112.582,114.955
			c63.445,0,112.65-51.386,112.65-114.955C692.773,509.643,689.678,494.819,684.041,481.188z M286.322,608.053
			c-45.749,0-82.795-37.172-82.795-82.837c0-45.638,37.046-82.76,82.795-82.76c45.61,0,82.74,37.122,82.74,82.76
			C369.075,570.866,331.932,608.053,286.322,608.053z M431.438,442.172c-17.1,0-31.355-12.367-21.875-21.875
			c5.623-5.601,13.339-9.071,21.931-9.071c8.509,0,16.213,3.471,21.805,9.071C462.793,429.776,448.511,442.172,431.438,442.172z
			 M581.248,602.791c-43.904,0-79.686-35.782-79.686-79.643c0-43.919,35.836-79.645,79.686-79.645
			c43.941,0,79.586,35.726,79.586,79.645C660.82,567.009,625.178,602.791,581.248,602.791z"/>
		<path fill="#FFFFFF" d="M468.846,324.414c14.227-11.924,33.242-19.405,50.871-21.251c17.682-1.791,31.965,0.514,43.332,4.462
			c-2.191-2.699-4.066-4.886-5.148-5.822c-12.158-10.618-25.762-13.206-25.664-13.562c0.082-0.214,0.139-0.431,0.193-0.652
			c2.734-15.337-9.439-27.746-27.193-27.746c-17.641,0-34.227,12.409-36.961,27.761c-0.748,4.095-0.359,8.001,0.887,11.513
			C471.303,304.926,471.994,314.593,468.846,324.414z"/>
	</g>
</g>
<g id="Independent_Travel">
	<path fill="#FFFFFF" d="M465.513,217.903v-36h-67.024v36C275.567,234.333,180.66,339.319,180.66,466.757
		c0,138.826,112.515,251.34,251.34,251.34c138.827,0,251.341-112.514,251.341-251.34
		C683.341,339.319,588.433,234.333,465.513,217.903z M448.756,683.733v-32.662h-33.512v32.662
		c-106.754-8.182-192.04-93.5-200.221-200.221h32.66V450h-32.66C223.63,337.715,317.555,248.928,432,248.928
		c114.444,0,208.37,88.787,216.978,201.072h-32.662v33.513h32.662C640.796,590.233,555.478,675.552,448.756,683.733z
		 M414.917,349.464h-16.429v-83.78h21.37c0,0,24.545,46.472,29.421,58.058v-58.058h16.233v83.78h-19.244
		c0,0-27.359-52.101-31.353-61.918v0.131L414.917,349.464L414.917,349.464z M463.548,476.835l75.076,96.545l-96.544-75.076
		c-11.521,3.699-24.61,1.311-33.774-7.854c-9.163-9.164-11.52-22.254-7.854-33.774l-75.075-96.543l96.544,75.075
		c11.521-3.665,24.61-1.309,33.774,7.854S467.247,465.315,463.548,476.835z"/>
</g>
<g id="Villas" display="none">
	<g display="inline">
		<path fill="#FFFFFF" d="M479.904,631.689c-3.24,4.179-7.4,6.646-9.668,5.279c-2.256-1.387-1.969-6.216,0.947-10.615
			c17.9-27.023,84.58-110.991,233.967-117.714c-63.266-24.69-214.918-58.618-331.485,117.121
			c-29.787,44.896-63.524,37.725-85.183,25.437c-13.78-7.812-19.527-4.857-11.628,8.884c22.759,39.579,65.599,56.007,94.066,62.739
			c15.415,3.653,41.062,6.617,56.907,6.158c35.305-1.032,97.967-12.536,157.208-71.91c11.188-11.217,27.406-31.183,37.848-43.098
			c40-45.709,68-68.582,86.016-80.028c3.424-2.181,6.033-4.399,7.832-6.608C570.73,529.82,499.297,606.693,479.904,631.689z"/>
		<path fill="#FFFFFF" d="M190.831,442.333c8.415,6.388,20.406,4.753,26.794-3.672l14.746-19.421
			c-2.142,7.975-3.519,16.294-3.519,22.816V580.33c0,12.182,9.505,24.757,21.229,28.075l87.918,26.086
			c5.766-4.303,11.351-10.279,16.753-18.437c20.569-31.001,42.237-55.663,64.231-75.257l-0.736-77.552l6.053,8.463
			c3.739,5.222,9.61,8.004,15.568,8.004c3.854,0,7.746-1.157,11.111-3.566c8.588-6.14,10.577-18.093,4.428-26.68l-99.498-139.134
			l7.382-13.55l9.831-12.938l91.637,128.147c1.988,5.967,3.375,12.068,3.605,16.562l0.727,76.041
			c9.592-5.46,19.125-10.155,28.545-14.124l-0.402-41.903c1.271,0.258,2.562,0.45,3.863,0.45c3.854,0,7.746-1.157,11.111-3.567
			c8.588-6.149,10.576-18.092,4.428-26.68l-95.788-133.999l19.441-35.688l81.73,122.027c5.365,8.003,10.48,23.466,10.939,32.522
			l0.709,74.722c9.811-2.516,19.383-4.342,28.629-5.623l-0.582-60.512c2.084,0.756,4.254,1.262,6.473,1.262
			c3.854,0,7.746-1.157,11.111-3.566c8.588-6.149,10.576-18.092,4.428-26.68l-93.951-131.379l12.555-23.055l85.758,119.923
			c4.771,8.415,9.008,21.802,9.428,30.007l0.871,91.503c9.926,0,19.459,0.631,28.707,1.578l-0.814-84.379
			c3.654-0.115,7.326-1.186,10.52-3.471c8.588-6.149,10.576-18.092,4.428-26.68L513.727,178.982
			c-3.441-4.819-8.93-7.774-14.85-7.994c-6.102-0.229-11.609,2.324-15.396,6.875l-25.102,30.093l-2.16-3.012
			c-3.453-4.839-8.96-7.793-14.898-7.995c-6.139-0.268-11.638,2.362-15.415,6.952l-33.698,40.841l-3.05-4.265
			c-3.538-4.954-9.208-7.908-15.281-8.004c-6.378,0.105-11.829,2.725-15.51,7.564l-27.139,35.745l-3.309-4.619
			c-3.538-4.954-9.208-7.908-15.281-8.004c-6.426,0.067-11.838,2.725-15.51,7.564L187.159,415.558
			C180.78,423.944,182.416,435.945,190.831,442.333z M326.915,435.046l30.485,6.847v38.154l-30.485-8.339V435.046z M326.915,491.542
			l30.485,8.348v35.238l-30.485-8.205V491.542z M277.304,423.906l30.485,6.847v35.716l-30.485-8.348V423.906z M277.304,477.953
			l30.485,8.349v35.458l-30.485-8.205V477.953z"/>
	</g>
</g>
<g id="All_Inclusive" display="none">
	<g display="inline">
		<path fill="#FFFFFF" d="M427,334.844c35.355,0,64.041-28.659,64.041-64.026c0-16.288-6.129-31.101-16.139-42.409
			c-7.586,7.103-20.406,10.835-31.452,10.835H410.56c-11.033,0-23.856-3.732-31.443-10.844c-10.018,11.3-16.155,26.122-16.155,42.4
			C362.961,306.177,391.651,334.844,427,334.844z"/>
		<path fill="#FFFFFF" d="M385.148,221.674c2.951,6.12,14.9,11.073,26.685,11.073h32.891c11.792,0,23.733-4.935,26.675-11.055
			c1.572-3.258,3.398-7.033,5.348-11.072c5.883-12.213-8.447-22.108-32.022-22.108h-32.891c-23.571,0-37.906,9.895-32.015,22.108
			C379.806,210.62,382.199,215.572,385.148,221.674z"/>
		<path fill="#FFFFFF" d="M311.477,571.59c-9.952,1.809-17.517,10.483-17.517,20.958v58.635c0,11.784,9.549,21.336,21.345,21.336
			h1.331c11.788,0,21.345-9.552,21.345-21.336v-58.635c0-10.475-7.561-19.141-17.513-20.958v-19.466
			c1.436,0.358,2.885,0.605,4.325,0.605c7.103,0,13.829-4.242,16.669-11.222l20.129-49.583v81.052h2.66v110.221
			c0,9.921,8.056,17.981,17.982,17.981c9.927,0,17.983-8.061,17.983-17.981V572.977h55.422v110.221
			c0,9.921,8.061,17.981,17.98,17.981c9.924,0,17.984-8.061,17.984-17.981V572.977h3.371v-72.685l16.734,41.216
			c2.223,5.47,6.85,9.176,12.17,10.555v22.644c-9.957,1.809-17.525,10.483-17.525,20.951v58.635
			c0,11.781,9.561,21.345,21.354,21.345h1.326c11.793,0,21.336-9.545,21.336-21.345v-58.635c0-10.483-7.561-19.159-17.516-20.97
			v-22.616c0.771-0.195,1.527-0.379,2.281-0.668c9.193-3.739,13.627-14.226,9.896-23.426l-50.066-123.294v-4.232
			c0-29.484-23.891-53.367-53.358-53.367h-26.662c-27.881,0-50.728,21.38-53.129,48.643l-53.684,132.25
			c-2.682,6.604-1.105,13.847,3.381,18.798c0,0.071-0.036,0.131-0.036,0.184V571.59z M447.824,384.436
			c4.899,0,8.885,3.978,8.885,8.904c0,4.899-3.986,8.885-8.885,8.885c-4.918,0-8.905-3.986-8.905-8.885
			C438.919,388.414,442.897,384.436,447.824,384.436z M447.824,422.112c4.899,0,8.885,3.985,8.885,8.903
			c0,4.908-3.986,8.895-8.885,8.895c-4.918,0-8.905-3.986-8.905-8.895C438.919,426.098,442.897,422.112,447.824,422.112z
			 M447.824,459.797c4.899,0,8.885,3.979,8.885,8.895c0,4.918-3.986,8.904-8.885,8.904c-4.918,0-8.905-3.986-8.905-8.904
			C438.919,463.775,442.897,459.797,447.824,459.797z M402.456,384.436c4.912,0,8.893,3.978,8.893,8.904
			c0,4.899-3.981,8.885-8.893,8.885c-4.917,0-8.9-3.986-8.9-8.885C393.564,388.414,397.539,384.436,402.456,384.436z
			 M402.456,422.112c4.912,0,8.893,3.985,8.893,8.903c0,4.908-3.981,8.895-8.893,8.895c-4.917,0-8.9-3.986-8.9-8.895
			C393.564,426.098,397.539,422.112,402.456,422.112z M402.456,459.797c4.912,0,8.893,3.979,8.893,8.895
			c0,4.918-3.981,8.904-8.893,8.904c-4.917,0-8.9-3.986-8.9-8.904C393.564,463.775,397.539,459.797,402.456,459.797z"/>
	</g>
</g>
<g id="Special_Needs" display="none">
	<path display="inline" fill="#FFFFFF" d="M445.176,247.902c0,28.224-22.843,51.098-51.067,51.098s-51.098-22.874-51.098-51.098
		c0-28.225,22.875-51.034,51.098-51.034S445.176,219.71,445.176,247.902z M395.342,662.139c-67.7,0-122.753-55.056-122.753-122.689
		c0-45.65,25.305-85.077,62.285-106.185v-37.06c-55.768,23.604-95.017,78.917-95.017,143.18c0,85.727,69.727,155.5,155.485,155.5
		c56.902,0,106.267-31.189,133.339-76.971l-16.826-42.052C496.227,625.694,450.25,662.139,395.342,662.139z M623.325,587.5h-36.898
		c0,0-22.308-63.743-28.564-80.67c-4.053-11.185-14.493-19.324-27.073-19.324h-89.633v-62.64h84.996
		c11.252,0,20.396-9.079,20.396-20.362c0-11.284-9.144-20.474-20.396-20.474h-84.996c0,0-4.88-74.313-47.078-74.313
		c-28.89,0-38.778,23.441-38.778,52.331v131.165c0,28.922,23.475,52.397,52.331,52.397c0.858,0,1.588-0.454,2.415-0.454
		c0.794,0.032,1.556,0.454,2.431,0.454h109.266l36.346,90.849h65.202c13.489,0,24.48-10.99,24.48-24.512
		C647.803,598.394,636.812,587.5,623.325,587.5z"/>
</g>
</svg>
